<svg width="49" height="64" viewBox="0 0 49 64" fill="none" xmlns="http://www.w3.org/2000/svg">
<path d="M39.1792 15.8174C38.8406 19.1622 38.5969 21.9517 38.2584 24.7278C38.0688 26.2445 37.4458 27.558 35.7396 27.9236C34.3177 28.2215 32.8417 27.4361 31.9886 25.6892C31.1625 24.0101 30.5667 22.209 29.9438 20.4351C28.1427 15.3434 25.3667 10.8205 21.9271 6.69029C20.8573 5.40383 19.8011 4.11737 18.5688 2.62779C18.2979 3.53508 18.0813 4.26633 17.8646 4.99758C15.5625 12.9465 14.7771 21.0445 15.1292 29.2913C15.2375 31.959 14.9261 34.6809 14.5469 37.3351C14.3031 39.0413 13.6667 40.7747 11.6084 41.1538C10.1323 41.4247 8.66981 40.2059 7.77606 37.9851C7.18023 36.4955 6.78752 34.9111 6.24585 33.3945C5.94793 32.5413 5.5146 31.7424 5.12189 30.8486C0.152099 36.8882 3.94377 56.808 10.5656 59.7195C10.5927 54.384 13.0438 49.9695 15.9417 45.7986C20.0448 39.8945 22.2792 33.3674 23.024 26.2715C23.0781 25.7434 23.1865 25.2017 23.2813 24.6872C23.7417 22.2767 24.7302 21.884 26.5313 23.6715C27.6958 24.8226 28.725 26.2445 29.4021 27.7205C32.7604 34.9517 34.1552 42.4538 31.8802 50.3351C31.6229 51.2017 31.0406 52.4205 31.474 53.0434C32.2323 53.9913 33.424 52.3663 33.6813 51.7028C34.3584 49.9559 34.7781 48.1278 35.3198 46.3267C35.6584 45.2028 35.8615 43.9705 36.4708 42.9955C36.9448 42.2372 37.974 41.3028 38.6781 41.3705C39.4094 41.4382 40.425 42.4809 40.6688 43.2934C42.4563 49.3465 41.6167 54.8851 36.0375 59.584C33.1667 62.008 29.6323 62.7934 26.0167 63.2674C21.9406 63.7955 17.9188 63.958 13.8292 63.0236C11.8792 62.5767 9.84793 62.2788 8.66981 61.8455C7.49168 61.4122 6.4896 60.532 6.01564 59.8007C-0.0104012 50.4976 -0.998942 40.6934 3.2396 30.4153C4.11981 28.2892 5.81252 27.8424 7.3021 29.6028C8.39898 30.9028 9.02189 32.6497 9.71252 34.2747C10.1865 35.4122 10.4438 36.6445 10.7688 37.8361C11.175 39.3257 11.7709 39.5559 12.1771 39.2986C12.6781 39.1497 12.9761 37.3486 12.9219 35.5476C12.8271 32.582 12.8813 29.6028 12.5698 26.6642C11.6625 18.0517 13.7615 9.98092 16.8219 2.07258C17.5802 0.0954981 18.4469 -0.148252 20.0719 1.233C26.7344 6.87987 31.5417 13.759 33.7219 22.3174C34.0604 23.6174 34.1688 25.0799 35.8209 26.109C35.9833 24.8497 36.1188 23.807 36.2677 22.7778C36.6469 20.232 36.8906 17.659 37.4594 15.1674C37.8115 13.6642 38.8542 13.3528 39.9511 14.4361C41.3865 15.858 42.7948 17.4288 43.7292 19.2028C47.2094 25.8382 48.4011 33.0424 48.374 40.4632C48.3469 46.2997 47.2636 51.9601 44.5823 57.1736C43.675 58.9476 42.1448 60.4101 40.8448 61.9674C40.2625 62.6715 38.9354 62.4413 39.5448 60.8705C39.599 60.7351 39.6667 60.5726 39.7615 60.4372C44.799 53.6799 45.3 45.7715 45.3677 37.809C45.4219 31.458 44.5011 25.2288 41.5354 19.4872C40.9125 18.309 40.1136 17.2528 39.1792 15.8174ZM38.4479 43.5913C37.649 46.2455 37.0261 48.4392 36.3083 50.6195C35.7396 52.3392 34.8729 53.8965 33.1667 54.7497C31.1896 55.7517 29.2667 54.6413 29.1584 52.4205C29.1177 51.5132 29.1583 50.5788 29.3344 49.6986C30.7156 42.6299 30.0656 35.7778 27.3031 29.1288C26.8292 27.9913 26.1386 26.9486 25.4479 25.7028C25.2042 26.109 25.0281 27.5851 25.0011 28.2215C24.825 33.0424 24.2834 37.809 21.7511 42.0611C20.2344 44.5934 18.5281 47.0174 16.8761 49.482C15.0479 52.2309 13.4229 55.0747 12.8271 58.3788C12.4209 60.6403 12.5969 60.7486 14.7636 61.3038C19.3542 62.4684 23.85 61.7236 28.3323 60.8299C33.4375 59.8142 36.6198 56.4559 38.5156 51.8247C39.5584 49.2924 39.2604 46.6653 38.4479 43.5913Z" fill="#CD4631"/>
</svg>
