<svg width="547" height="593" viewBox="0 0 547 593" fill="none" xmlns="http://www.w3.org/2000/svg">
<path d="M115.612 83.9508C115.612 130.457 133.597 208.876 65.6825 293.648C-0.65333 376.45 90.6069 114.254 182.261 98.0256C289.398 79.0554 104.758 518.301 95.2377 428.909C89.9113 378.898 244.884 116.399 288.475 159.991C343.929 215.445 198.519 532.191 164.565 526.981C104.666 517.791 318.897 153.446 379.684 184.826C452.168 222.244 332.694 471.949 277.255 485.343C232.904 496.057 398.32 254.065 509.012 309.449" stroke="black" stroke-width="8" stroke-linecap="round"/>
<path d="M516.507 289.989C517.588 288.054 520.546 289.052 520.233 291.246L519.657 295.288C519.469 296.605 520.594 297.734 521.912 297.552L537.626 295.372C539.746 295.078 540.784 297.871 538.987 299.033L527.309 306.583C525.955 307.459 526.141 309.496 527.632 310.111L535.582 313.393C537.409 314.148 537.151 316.813 535.212 317.203L530.01 318.248C528.834 318.484 528.129 319.694 528.503 320.833L529.98 325.327C530.544 327.044 528.721 328.569 527.131 327.711L520.787 324.291C519.159 323.413 517.314 325.026 517.966 326.756L521.455 336.022C522.212 338.032 519.7 339.66 518.175 338.147L508.312 328.364C507.676 327.733 506.698 327.602 505.918 328.043L494.799 334.334C492.946 335.382 490.956 333.195 492.174 331.449L498.723 322.062C499.322 321.204 499.157 320.028 498.345 319.367L486.928 310.073C485.468 308.885 486.308 306.522 488.19 306.522H496.986C497.981 306.522 498.824 305.791 498.966 304.807L500.345 295.245C500.643 293.176 503.514 292.894 504.21 294.864L506.444 301.188C507.018 302.811 509.237 303 510.076 301.497L516.507 289.989Z" fill="#CD4631"/>
</svg>
